<?xml version="1.0" encoding="UTF-8"?>
<svg version="1.1" xmlns="http://www.w3.org/2000/svg" width="500" height="500">
<path d="M0 0 C0 27.72 0 55.44 0 84 C-7.425 84.99 -7.425 84.99 -15 86 C-16.98 86.99 -16.98 86.99 -19 88 C-19.99 88 -20.98 88 -22 88 C-22 88.66 -22 89.32 -22 90 C-22.66 90 -23.32 90 -24 90 C-24.28875 90.721875 -24.5775 91.44375 -24.875 92.1875 C-25.55080278 93.87700695 -26.25169369 95.55723841 -27.00073242 97.21557617 C-28.21396486 100.59620553 -28.65384051 103.80045671 -29.11328125 107.36328125 C-29.31143589 108.82362382 -29.51001845 110.28390837 -29.70898438 111.74414062 C-30.01039207 114.00918426 -30.30766771 116.27456878 -30.59643555 118.54125977 C-32.37580954 132.37150139 -35.82306306 145.11715022 -41.0625 158.0625 C-41.52785156 159.22910156 -41.99320312 160.39570313 -42.47265625 161.59765625 C-44.10613856 165.23643653 -45.96858591 168.57062352 -48 172 C-48.66 172 -49.32 172 -50 172 C-50.2371875 172.71542969 -50.474375 173.43085938 -50.71875 174.16796875 C-52.20820269 177.46020411 -54.06794847 179.64750847 -56.5 182.3125 C-57.2940625 183.19550781 -58.088125 184.07851563 -58.90625 184.98828125 C-61 187 -61 187 -63 187 C-63.66 188.32 -64.32 189.64 -65 191 C-65.66 191 -66.32 191 -67 191 C-67 191.66 -67 192.32 -67 193 C-69.13810469 194.55553122 -71.26008109 195.98004481 -73.5 197.375 C-74.14783447 197.78129639 -74.79566895 198.18759277 -75.46313477 198.60620117 C-77.30191203 199.74912517 -79.14873289 200.87745164 -81 202 C-81.72058594 202.44214844 -82.44117188 202.88429688 -83.18359375 203.33984375 C-93.98565896 209.33029862 -107.31170175 210.71426227 -119.375 211.75 C-120.6434375 211.87503906 -121.911875 212.00007812 -123.21875 212.12890625 C-132.92147272 213.02077268 -142.16600969 213 -152 213 C-152 184.95 -152 156.9 -152 128 C-141.605 127.01 -141.605 127.01 -131 126 C-128.36 124.35 -125.72 122.7 -123 121 C-122.34 121 -121.68 121 -121 121 C-114.97923938 109.22726271 -112.97761288 98.44968006 -112.38720703 85.37768555 C-111.59043502 68.43222935 -110.42130648 49.04289526 -100 35 C-99.38253906 34.14148438 -98.76507813 33.28296875 -98.12890625 32.3984375 C-94.77471173 27.89363571 -94.77471173 27.89363571 -93 26 C-92.34 26 -91.68 26 -91 26 C-90.731875 25.360625 -90.46375 24.72125 -90.1875 24.0625 C-89 22 -89 22 -86 21 C-86 20.34 -86 19.68 -86 19 C-83.5515799 17.27559125 -81.11476023 15.68217249 -78.5625 14.125 C-77.82547852 13.6724585 -77.08845703 13.21991699 -76.32910156 12.75366211 C-52.60114365 -1.63317707 -27.96670215 0 0 0 Z " fill="#030303" transform="translate(386,136)"/>
<path d="M0 0 C1.76582363 1.76582363 1.11985561 4.10371999 1.12442017 6.45516968 C1.11902725 7.62796982 1.11902725 7.62796982 1.11352539 8.82446289 C1.11367142 9.64390884 1.11381744 10.4633548 1.1139679 11.30763245 C1.11326852 14.02933353 1.10547501 16.75096705 1.09765625 19.47265625 C1.09579216 21.35452741 1.09436821 23.23639906 1.09336853 25.11827087 C1.08954267 30.08148529 1.07971181 35.04467064 1.06866455 40.00787354 C1.0584519 45.06839606 1.05387122 50.12892327 1.04882812 55.18945312 C1.0380896 65.12631488 1.02101236 75.06315503 1 85 C-2.28784271 84.37261137 -5.25362669 83.58072904 -8.375 82.375 C-14.15591951 80.43207507 -18.03417296 81.15266076 -23.625 83.5625 C-28.46164062 86.60577949 -31.20468787 90.95455823 -32.63991356 96.45038319 C-33.83222296 103.03857686 -34.30381213 109.38233979 -34.31884766 116.07104492 C-34.32889328 117.11628326 -34.3389389 118.16152161 -34.34928894 119.23843384 C-34.37988638 122.65244048 -34.39709039 126.06636958 -34.4140625 129.48046875 C-34.43279303 131.86372026 -34.45236782 134.24696527 -34.4727478 136.63020325 C-34.52387581 142.87224479 -34.56360463 149.11430779 -34.60089111 155.35644531 C-34.64812608 162.86238096 -34.70964049 170.36821176 -34.76873779 177.87406158 C-34.8567141 189.24933162 -34.92664758 200.62458395 -35 212 C-61.07 212 -87.14 212 -114 212 C-114.16121214 179.66353221 -114.16121214 179.66353221 -114.1953125 166.00585938 C-114.21895242 156.61376098 -114.24658563 147.22180719 -114.30175781 137.82983398 C-114.34193833 130.98656523 -114.36750596 124.14341495 -114.37635398 117.30003148 C-114.38151665 113.68478249 -114.3934324 110.06987208 -114.42292023 106.45473289 C-114.66547108 75.49501843 -110.64521914 45.30062293 -88.03125 21.96875 C-86.08353772 20.21261598 -84.07849017 18.59883859 -82 17 C-81.21367187 16.35546875 -80.42734375 15.7109375 -79.6171875 15.046875 C-57.18426803 -2.49767695 -27.27329158 -5.18230367 0 0 Z " fill="#020202" transform="translate(231,131)"/>
<path d="M0 0 C1.94231727 0.72058595 3.89305272 1.37545037 5.86547852 2.00830078 C20.9101276 6.8981886 34.41456196 14.26200501 47.72094727 22.75439453 C48.45829102 23.22321045 49.19563477 23.69202637 49.95532227 24.17504883 C51.68715627 25.3106264 53.36676284 26.52518809 55.03344727 27.75439453 C55.03344727 28.41439453 55.03344727 29.07439453 55.03344727 29.75439453 C55.73856445 29.99158203 56.44368164 30.22876953 57.17016602 30.47314453 C60.53631595 31.97941626 63.00327899 33.9102397 65.84594727 36.25439453 C66.82176758 37.04845703 67.79758789 37.84251953 68.80297852 38.66064453 C69.5390332 39.35158203 70.27508789 40.04251953 71.03344727 40.75439453 C71.03344727 41.41439453 71.03344727 42.07439453 71.03344727 42.75439453 C72.02344727 43.08439453 73.01344727 43.41439453 74.03344727 43.75439453 C74.03344727 44.41439453 74.03344727 45.07439453 74.03344727 45.75439453 C74.61094727 46.00189453 75.18844727 46.24939453 75.78344727 46.50439453 C78.36284706 47.93739442 80.09466318 49.5386413 82.03344727 51.75439453 C82.03344727 52.41439453 82.03344727 53.07439453 82.03344727 53.75439453 C82.69344727 53.75439453 83.35344727 53.75439453 84.03344727 53.75439453 C90.12513119 59.49171457 95.34339705 66.8416221 100.03344727 73.75439453 C100.03344727 74.41439453 100.03344727 75.07439453 100.03344727 75.75439453 C100.69344727 75.75439453 101.35344727 75.75439453 102.03344727 75.75439453 C103.27026367 77.35913086 103.27026367 77.35913086 104.63500977 79.58642578 C105.12485352 80.385 105.61469727 81.18357422 106.11938477 82.00634766 C106.62727539 82.85132812 107.13516602 83.69630859 107.65844727 84.56689453 C108.17407227 85.40027344 108.68969727 86.23365234 109.22094727 87.09228516 C113.03344727 93.37080698 113.03344727 93.37080698 113.03344727 96.75439453 C113.69344727 96.75439453 114.35344727 96.75439453 115.03344727 96.75439453 C136.7058484 145.91180138 148.0741776 201.27226992 130.03344727 253.75439453 C129.42649598 255.79523511 128.82242382 257.83693374 128.22094727 259.87939453 C121.92706978 280.28262374 111.46819179 301.08278151 98.03344727 317.75439453 C97.16333008 318.88167969 97.16333008 318.88167969 96.27563477 320.03173828 C87.35822529 331.45829739 76.98234572 344.42637439 65.03344727 352.75439453 C64.37344727 352.75439453 63.71344727 352.75439453 63.03344727 352.75439453 C63.03344727 353.41439453 63.03344727 354.07439453 63.03344727 354.75439453 C60.28006183 357.19151555 57.21182066 359.24403412 54.22094727 361.37939453 C52.97087891 362.29591797 52.97087891 362.29591797 51.69555664 363.23095703 C50.49189453 364.09720703 50.49189453 364.09720703 49.26391602 364.98095703 C48.5255249 365.51285645 47.78713379 366.04475586 47.02636719 366.59277344 C45.03344727 367.75439453 45.03344727 367.75439453 42.03344727 367.75439453 C42.03344727 368.41439453 42.03344727 369.07439453 42.03344727 369.75439453 C13.39880295 385.41283294 -16.99612983 397.63899308 -50.18139648 397.99267578 C-50.94607742 398.00242432 -51.71075836 398.01217285 -52.49861145 398.0222168 C-76.78596094 398.26782421 -99.74543812 396.38261342 -122.96655273 388.75439453 C-123.99184082 388.41819092 -123.99184082 388.41819092 -125.0378418 388.07519531 C-135.27566093 384.63914848 -144.55817098 380.01327458 -153.96655273 374.75439453 C-155.36260742 374.03316406 -155.36260742 374.03316406 -156.78686523 373.29736328 C-165.33862668 368.86831668 -173.12975352 363.32234198 -180.96655273 357.75439453 C-181.7825293 357.19107422 -182.59850586 356.62775391 -183.43920898 356.04736328 C-183.94323242 355.62068359 -184.44725586 355.19400391 -184.96655273 354.75439453 C-184.96655273 354.09439453 -184.96655273 353.43439453 -184.96655273 352.75439453 C-186.61655273 352.09439453 -188.26655273 351.43439453 -189.96655273 350.75439453 C-189.96655273 350.09439453 -189.96655273 349.43439453 -189.96655273 348.75439453 C-190.55428467 348.49045898 -191.1420166 348.22652344 -191.74755859 347.95458984 C-195.61912398 345.8605624 -198.44992976 342.60880359 -201.52905273 339.50439453 C-202.24287109 338.78493652 -202.95668945 338.06547852 -203.69213867 337.32421875 C-219.19009748 321.47387501 -231.7725639 302.90783533 -240.96655273 282.75439453 C-241.33377441 281.97257812 -241.70099609 281.19076172 -242.0793457 280.38525391 C-248.40612982 266.85628159 -252.69316518 253.31293798 -255.96655273 238.75439453 C-256.21743652 237.68294189 -256.21743652 237.68294189 -256.47338867 236.58984375 C-260.64320787 218.55201296 -261.78173649 199.5680532 -260.16430664 181.14941406 C-260.01789003 179.37614622 -259.89944686 177.60051965 -259.79614258 175.82421875 C-259.27727824 167.50345261 -257.95061459 159.52840482 -256.21655273 151.37939453 C-255.94633301 150.10153076 -255.67611328 148.82366699 -255.39770508 147.50708008 C-250.05977158 122.88315201 -239.47216175 99.95381527 -226.02905273 78.69189453 C-225.65143799 78.08958008 -225.27382324 77.48726563 -224.88476562 76.86669922 C-223.96890346 75.4572949 -222.97471584 74.09932248 -221.96655273 72.75439453 C-221.30655273 72.75439453 -220.64655273 72.75439453 -219.96655273 72.75439453 C-219.67780273 72.17689453 -219.38905273 71.59939453 -219.09155273 71.00439453 C-218.04988607 68.9210612 -217.0082194 66.83772786 -215.96655273 64.75439453 C-215.30655273 64.75439453 -214.64655273 64.75439453 -213.96655273 64.75439453 C-213.59530273 63.91908203 -213.59530273 63.91908203 -213.21655273 63.06689453 C-211.73730455 60.3302854 -210.03187834 58.07788584 -207.96655273 55.75439453 C-207.30655273 55.75439453 -206.64655273 55.75439453 -205.96655273 55.75439453 C-205.69560791 55.15820312 -205.42466309 54.56201172 -205.14550781 53.94775391 C-203.98255866 51.78417239 -202.83769784 50.38088392 -201.10327148 48.66064453 C-200.26699219 47.82726562 -200.26699219 47.82726562 -199.41381836 46.97705078 C-198.54273438 46.12433594 -198.54273438 46.12433594 -197.65405273 45.25439453 C-197.08493164 44.68591797 -196.51581055 44.11744141 -195.92944336 43.53173828 C-187.06045681 34.75439453 -187.06045681 34.75439453 -183.96655273 34.75439453 C-183.96655273 34.09439453 -183.96655273 33.43439453 -183.96655273 32.75439453 C-179.58193735 29.75439453 -179.58193735 29.75439453 -176.96655273 29.75439453 C-176.96655273 29.09439453 -176.96655273 28.43439453 -176.96655273 27.75439453 C-174.47984719 25.94643481 -171.99802788 24.27147765 -169.40405273 22.62939453 C-168.24256714 21.89015747 -168.24256714 21.89015747 -167.05761719 21.13598633 C-118.8480049 -9.20141922 -54.3260024 -20.74442456 0 0 Z M-165.67749023 27.64111328 C-169.05019719 29.80813758 -172.47090082 31.79417453 -175.96655273 33.75439453 C-175.96655273 34.41439453 -175.96655273 35.07439453 -175.96655273 35.75439453 C-176.52858398 36.01220703 -177.09061523 36.27001953 -177.66967773 36.53564453 C-180.23359852 37.8960923 -182.41881639 39.48228415 -184.71655273 41.25439453 C-185.51577148 41.86283203 -186.31499023 42.47126953 -187.13842773 43.09814453 C-187.74170898 43.64470703 -188.34499023 44.19126953 -188.96655273 44.75439453 C-188.96655273 45.41439453 -188.96655273 46.07439453 -188.96655273 46.75439453 C-189.62655273 46.75439453 -190.28655273 46.75439453 -190.96655273 46.75439453 C-190.96655273 47.41439453 -190.96655273 48.07439453 -190.96655273 48.75439453 C-191.62655273 48.75439453 -192.28655273 48.75439453 -192.96655273 48.75439453 C-192.96655273 49.41439453 -192.96655273 50.07439453 -192.96655273 50.75439453 C-193.62655273 50.75439453 -194.28655273 50.75439453 -194.96655273 50.75439453 C-194.96655273 51.41439453 -194.96655273 52.07439453 -194.96655273 52.75439453 C-195.60592773 53.02251953 -196.24530273 53.29064453 -196.90405273 53.56689453 C-199.2978696 54.64107205 -199.2978696 54.64107205 -199.96655273 57.75439453 C-200.62655273 57.75439453 -201.28655273 57.75439453 -201.96655273 57.75439453 C-201.96655273 58.41439453 -201.96655273 59.07439453 -201.96655273 59.75439453 C-202.62655273 59.75439453 -203.28655273 59.75439453 -203.96655273 59.75439453 C-206.99173183 62.80997876 -206.99173183 62.80997876 -207.96655273 66.75439453 C-208.62655273 66.75439453 -209.28655273 66.75439453 -209.96655273 66.75439453 C-211.78759474 68.92897731 -211.78759474 68.92897731 -213.59155273 71.62939453 C-214.22319336 72.53431641 -214.85483398 73.43923828 -215.50561523 74.37158203 C-217.14078378 76.57273159 -217.14078378 76.57273159 -216.96655273 78.75439453 C-217.62655273 78.75439453 -218.28655273 78.75439453 -218.96655273 78.75439453 C-220.30942123 80.49691822 -220.30942123 80.49691822 -221.61108398 82.77783203 C-222.12348633 83.63505859 -222.63588867 84.49228516 -223.16381836 85.37548828 C-223.6968457 86.28427734 -224.22987305 87.19306641 -224.77905273 88.12939453 C-225.30047852 88.99951172 -225.8219043 89.86962891 -226.35913086 90.76611328 C-231.27438532 99.05025001 -235.59920931 107.462946 -239.09155273 116.44189453 C-240.48955059 120.02001337 -241.88389346 123.57046682 -243.45874023 127.07470703 C-245.32157634 131.62079928 -246.66566902 136.20925249 -247.96655273 140.94189453 C-248.21405273 141.79203125 -248.46155273 142.64216797 -248.71655273 143.51806641 C-253.06648597 159.27524644 -254.47217165 175.19057314 -254.35766602 191.48120117 C-254.3415758 194.1880137 -254.35763863 196.89332948 -254.37670898 199.60009766 C-254.40000635 218.36580747 -251.74521679 235.92417452 -245.96655273 253.75439453 C-245.46232796 255.52402954 -244.96164667 257.29468329 -244.46655273 259.06689453 C-237.85976931 280.78532622 -225.61666167 302.50844144 -210.96655273 319.75439453 C-208.84825756 322.47092937 -206.73622031 325.19207596 -204.63061523 327.91845703 C-204.08147461 328.52431641 -203.53233398 329.13017578 -202.96655273 329.75439453 C-202.30655273 329.75439453 -201.64655273 329.75439453 -200.96655273 329.75439453 C-200.72936523 330.31642578 -200.49217773 330.87845703 -200.24780273 331.45751953 C-195.73706067 339.54384982 -186.51250384 346.55929743 -178.96655273 351.75439453 C-178.30655273 351.75439453 -177.64655273 351.75439453 -176.96655273 351.75439453 C-176.96655273 352.41439453 -176.96655273 353.07439453 -176.96655273 353.75439453 C-175.02040746 355.34788314 -175.02040746 355.34788314 -172.59155273 356.87939453 C-171.37338867 357.68763672 -171.37338867 357.68763672 -170.13061523 358.51220703 C-168.09333248 359.92033583 -168.09333248 359.92033583 -165.96655273 359.75439453 C-165.96655273 360.41439453 -165.96655273 361.07439453 -165.96655273 361.75439453 C-164.97655273 361.75439453 -163.98655273 361.75439453 -162.96655273 361.75439453 C-162.96655273 362.41439453 -162.96655273 363.07439453 -162.96655273 363.75439453 C-158.63268406 366.08710527 -154.29169029 368.40553317 -149.94116211 370.70703125 C-148.23254273 371.61330933 -146.52877372 372.52872079 -144.82592773 373.44580078 C-138.21845398 376.90298992 -131.60629124 379.36515133 -124.50952148 381.57861328 C-120.96655273 382.75439453 -120.96655273 382.75439453 -117.52124023 384.27001953 C-113.67889714 385.87451445 -109.95303402 386.90189957 -105.90405273 387.81689453 C-105.16380859 387.98680908 -104.42356445 388.15672363 -103.66088867 388.33178711 C-61.86100941 397.66996262 -17.91950538 392.34786376 21.03344727 374.75439453 C21.03344727 374.09439453 21.03344727 373.43439453 21.03344727 372.75439453 C22.35344727 372.75439453 23.67344727 372.75439453 25.03344727 372.75439453 C25.03344727 372.09439453 25.03344727 371.43439453 25.03344727 370.75439453 C25.56454102 370.65255859 26.09563477 370.55072266 26.64282227 370.44580078 C29.73562566 369.55131352 32.41796295 368.15578326 35.28344727 366.69189453 C36.36110352 366.14404297 37.43875977 365.59619141 38.54907227 365.03173828 C39.77883789 364.39945312 39.77883789 364.39945312 41.03344727 363.75439453 C41.03344727 363.09439453 41.03344727 362.43439453 41.03344727 361.75439453 C42.11625977 361.35220703 42.11625977 361.35220703 43.22094727 360.94189453 C46.0311111 359.75538091 48.51761283 358.47953814 51.03344727 356.75439453 C51.03344727 356.09439453 51.03344727 355.43439453 51.03344727 354.75439453 C52.35344727 354.42439453 53.67344727 354.09439453 55.03344727 353.75439453 C55.03344727 353.09439453 55.03344727 352.43439453 55.03344727 351.75439453 C55.59547852 351.49658203 56.15750977 351.23876953 56.73657227 350.97314453 C59.30049305 349.61269677 61.48571092 348.02650492 63.78344727 346.25439453 C64.58266602 345.64595703 65.38188477 345.03751953 66.20532227 344.41064453 C67.11024414 343.59080078 67.11024414 343.59080078 68.03344727 342.75439453 C68.03344727 342.09439453 68.03344727 341.43439453 68.03344727 340.75439453 C68.69344727 340.75439453 69.35344727 340.75439453 70.03344727 340.75439453 C73.07739795 338.01483891 75.47740956 335.57375981 77.03344727 331.75439453 C77.69344727 331.75439453 78.35344727 331.75439453 79.03344727 331.75439453 C79.03344727 331.09439453 79.03344727 330.43439453 79.03344727 329.75439453 C79.69344727 329.75439453 80.35344727 329.75439453 81.03344727 329.75439453 C82.63978742 328.02047502 84.17097596 326.21630353 85.65844727 324.37939453 C86.8843457 322.88279297 86.8843457 322.88279297 88.13500977 321.35595703 C90.22993696 319.02189569 90.22993696 319.02189569 90.03344727 316.75439453 C90.69344727 316.75439453 91.35344727 316.75439453 92.03344727 316.75439453 C93.35710254 315.17449803 93.35710254 315.17449803 94.63500977 313.10595703 C95.12485352 312.34798828 95.61469727 311.59001953 96.11938477 310.80908203 C96.62727539 310.00728516 97.13516602 309.20548828 97.65844727 308.37939453 C98.43188477 307.18830078 98.43188477 307.18830078 99.22094727 305.97314453 C101.9910768 302.14974452 101.9910768 302.14974452 103.03344727 297.75439453 C103.69344727 297.75439453 104.35344727 297.75439453 105.03344727 297.75439453 C105.55293945 296.71541016 106.07243164 295.67642578 106.60766602 294.60595703 C106.94314453 293.9352417 107.27862305 293.26452637 107.62426758 292.57348633 C108.36007377 291.10138253 109.09509014 289.6288837 109.8293457 288.15600586 C111.38122805 285.04505018 112.93785381 281.93887748 114.53735352 278.85205078 C119.67709764 268.9109156 122.80766905 258.48322535 125.65844727 247.69189453 C125.95750977 246.58523438 126.25657227 245.47857422 126.56469727 244.33837891 C135.79869262 209.7517547 135.04281715 173.0772222 125.03344727 138.75439453 C124.64479492 137.39459473 124.64479492 137.39459473 124.24829102 136.00732422 C118.49555476 116.27023537 109.76306401 97.64039725 98.03344727 80.75439453 C97.3309082 79.64193359 96.62836914 78.52947266 95.90454102 77.38330078 C95.28708008 76.51576172 94.66961914 75.64822266 94.03344727 74.75439453 C93.37344727 74.75439453 92.71344727 74.75439453 92.03344727 74.75439453 C91.78594727 74.03251953 91.53844727 73.31064453 91.28344727 72.56689453 C89.91075135 69.47832872 88.30991431 67.24428036 86.03344727 64.75439453 C85.37344727 64.75439453 84.71344727 64.75439453 84.03344727 64.75439453 C83.63125977 63.88814453 83.63125977 63.88814453 83.22094727 63.00439453 C82.00415537 60.69889411 80.73010847 58.73383261 79.03344727 56.75439453 C78.37344727 56.75439453 77.71344727 56.75439453 77.03344727 56.75439453 C77.03344727 56.09439453 77.03344727 55.43439453 77.03344727 54.75439453 C76.37344727 54.75439453 75.71344727 54.75439453 75.03344727 54.75439453 C75.03344727 54.09439453 75.03344727 53.43439453 75.03344727 52.75439453 C74.37344727 52.75439453 73.71344727 52.75439453 73.03344727 52.75439453 C73.03344727 52.09439453 73.03344727 51.43439453 73.03344727 50.75439453 C72.37344727 50.75439453 71.71344727 50.75439453 71.03344727 50.75439453 C71.03344727 50.09439453 71.03344727 49.43439453 71.03344727 48.75439453 C70.37344727 48.75439453 69.71344727 48.75439453 69.03344727 48.75439453 C69.03344727 48.09439453 69.03344727 47.43439453 69.03344727 46.75439453 C65.97786304 43.72921544 65.97786304 43.72921544 62.03344727 42.75439453 C62.03344727 42.09439453 62.03344727 41.43439453 62.03344727 40.75439453 C59.77679358 38.94004497 57.51616281 37.24095395 55.15844727 35.56689453 C54.12288696 34.82379028 54.12288696 34.82379028 53.06640625 34.06567383 C51.68242046 33.07392774 50.29661979 32.08470898 48.90893555 31.09814453 C47.38207094 30.00417645 45.8746223 28.88314874 44.37329102 27.75439453 C37.73637735 22.83647566 30.53916178 19.28760334 23.10913086 15.74511719 C21.07428786 14.77388772 19.04779472 13.78674484 17.02172852 12.79736328 C10.16104564 9.48047839 3.41635194 6.69844706 -3.96655273 4.75439453 C-5.0094043 4.43857422 -6.05225586 4.12275391 -7.12670898 3.79736328 C-61.0793765 -12.44318038 -118.86721784 -3.2185862 -165.67749023 27.64111328 Z " fill="#232323" transform="translate(306.966552734375,39.24560546875)"/>
</svg>
